PathFileType	4	(X/Y/Z)	C:/Users/opensim2020/Desktop/walking_exp_matlab/subject06_walking11_run.trc																																																																																																																																								
DataRate	CameraRate	NumFrames	NumMarkers	Units	OrigDataRate	OrigDataStartFrame	OrigNumFrames																																																																																																																																				
100	100	6	46	mm	100	265	106																																																																																																																																				
Frame#	Time	LKNE			RKNE			RFRM			RWRA			RWRB			RELB			RUPA			RSHO			LWRA			RFIN			RFHD			CLAV			RASI			RTHI			LSHO			LTHI			RBHD			C7			LTIB			LANK			LTOE			LBHD			RTIB			RBAK			LHEE			RANK			STRN			RHEE			RTOE			T10			LUPA			LFHD			LPSI			RPSI			LASI			LFRM			LWRB			LFIN			LELB			*39			*40			*41			*42			*43			*44			*45		
		X1	Y1	Z1	X2	Y2	Z2	X3	Y3	Z3	X4	Y4	Z4	X5	Y5	Z5	X6	Y6	Z6	X7	Y7	Z7	X8	Y8	Z8	X9	Y9	Z9	X10	Y10	Z10	X11	Y11	Z11	X12	Y12	Z12	X13	Y13	Z13	X14	Y14	Z14	X15	Y15	Z15	X16	Y16	Z16	X17	Y17	Z17	X18	Y18	Z18	X19	Y19	Z19	X20	Y20	Z20	X21	Y21	Z21	X22	Y22	Z22	X23	Y23	Z23	X24	Y24	Z24	X25	Y25	Z25	X26	Y26	Z26	X27	Y27	Z27	X28	Y28	Z28	X29	Y29	Z29	X30	Y30	Z30	X31	Y31	Z31	X32	Y32	Z32	X33	Y33	Z33	X34	Y34	Z34	X35	Y35	Z35	X36	Y36	Z36	X37	Y37	Z37	X38	Y38	Z38	X39	Y39	Z39	X40	Y40	Z40	X41	Y41	Z41	X42	Y42	Z42	X43	Y43	Z43	X44	Y44	Z44	X45	Y45	Z45	X46	Y46	Z46
																																																																																																																																											
80	0.79	1152.17078	474.33362	69.05881	1349.88391	549.04822	322.41705	1132.63782	1153.68359	465.59299	1256.35779	1167.59729	394.0582	1252.97913	1109.52332	425.51093	1048.45654	1209.54919	484.29169	1090.86926	1303.73425	444.94598	1225.27295	1421.11987	351.08328	1371.32336	1234.25366	64.11743	1333.01538	1128.40271	407.29745	1317.4187	1660.42065	286.33942	1309.73035	1378.60022	212.95145	1280.40698	977.27051	310.68097	1300.3573	661.88751	358.90857	1277.48193	1428.64185	52.85968	1180.75244	636.92249	44.80677	1190.5968	1599.08496	277.5563	1204.80017	1458.57532	192.612	916.45544	400.16776	78.93033	752.74231	355.43497	110.97802	740.45105	208.73502	125.39807	1194.2251	1605.80432	148.24196	1348.08472	280.38947	289.50461	1111.46973	1306.42871	237.49797	731.84662	391.89413	156.0863	1358.42993	104.29732	218.97203	1338.40063	1199.2583	210.09526	1321.40063	96.80187	174.44714	1510.76538	32.63536	191.20195	1141.72827	1145.01123	177.06593	1255.44128	1266.57983	-61.79443	1321.4032	1672.78882	154.36652	1147.1189	1001.77472	107.28655	1137.92554	1011.35138	272.06854	1294.75818	954.49365	97.09303	1331.72058	1154.68262	-27.67172	1395.84363	1168.67529	68.72372	1447.78784	1222.59644	119.24692	1231.98511	1171.17395	-106.77325	NaN	NaN	NaN	1215.67126	1701.39502	209.65082	NaN	NaN	NaN	NaN	NaN	NaN	NaN	NaN	NaN	NaN	NaN	NaN	NaN	NaN	NaN
81	0.8	1208.83337	464.5592	65.88597	1385.40637	539.55597	321.58868	1181.58337	1138.67883	466.52451	1303.40942	1155.60278	392.41656	1301.22083	1097.05151	423.07272	1096.72107	1193.15137	487.0545	1135.31763	1288.52002	448.42624	1265.51477	1411.22888	352.83295	1407.42737	1221.90857	60.77406	1380.87903	1117.66016	404.16971	1356.49304	1653.21729	286.54428	1348.62842	1370.94751	212.83159	1319.66187	970.56519	310.02698	1338.53467	654.68536	356.88138	1313.62244	1421.31018	52.96348	1229.48352	627.49097	42.25037	1229.48816	1591.56665	279.78473	1243.37061	1450.79199	194.65007	974.74927	393.6011	75.17495	810.63873	352.66666	106.66095	799.1076	206.50409	117.89261	1231.19409	1598.11365	150.46323	1368.19226	270.77573	286.12631	1150.86365	1297.9408	238.99847	789.64728	388.81	152.27638	1361.52295	94.16623	216.43613	1377.61279	1191.65161	208.52571	1320.69336	84.93418	175.00166	1513.21521	32.98269	188.61452	1180.45227	1137.71326	175.96906	1287.40332	1260.26953	-62.36922	1358.33948	1665.43005	154.40636	1186.61609	993.57214	104.71066	1176.49976	1004.03137	269.87411	1334.60938	947.06879	95.79149	1363.26318	1145.26758	-31.36092	1430.51855	1155.60791	63.27901	1485.23816	1207.17529	113.16502	1261.71912	1165.89099	-107.2289	NaN	NaN	NaN	1253.48511	1693.82898	211.55969	NaN	NaN	NaN	NaN	NaN	NaN	NaN	NaN	NaN	NaN	NaN	NaN	NaN	NaN	NaN
82	0.81	1266.62976	455.28995	62.96923	1421.61353	530.10638	319.05994	1231.25342	1122.9519	466.94696	1351.02429	1143.10889	390.57718	1350.50879	1084.21558	420.59201	1145.88367	1175.96948	489.71866	1180.73218	1272.35742	452.01563	1306.2334	1400.66919	355.11417	1443.02136	1208.96155	56.41341	1429.37903	1105.97791	400.42542	1395.0979	1645.69678	286.29233	1387.48499	1362.78564	212.49809	1358.64844	962.79242	309.14047	1374.26343	644.27399	357.0784	1349.23657	1413.46277	52.6414	1278.92944	618.1358	39.66918	1268.86121	1583.7063	282.19424	1281.52917	1442.53833	196.6694	1034.80334	386.47995	70.90105	870.43085	347.95828	101.78999	860.92828	202.32991	110.08595	1268.06348	1589.97302	152.80107	1387.24646	262.35333	284.90677	1189.38147	1288.47156	241.19183	848.91089	383.59644	147.82263	1358.2804	88.79198	214.00468	1415.30261	1183.10681	204.985	1316.30457	78.43362	171.66962	1511.91174	32.08749	185.96912	1219.01953	1129.51001	175.19521	1318.26453	1252.9884	-62.59599	1395.08911	1657.90637	154.27686	1225.34192	984.99249	102.58009	1213.95435	996.12872	268.40518	1373.84985	939.02625	94.77733	1394.18127	1135.27771	-35.98755	1464.00024	1141.73474	57.15113	1521.974	1190.68506	105.91926	1290.35889	1159.86243	-107.66801	1460.75757	1577.54956	160.13518	1291.02954	1685.78308	213.3802	NaN	NaN	NaN	NaN	NaN	NaN	NaN	NaN	NaN	NaN	NaN	NaN	NaN	NaN	NaN
83	0.82	1325.74414	447.108	60.18527	1457.78125	519.17578	313.77631	1281.88232	1106.67444	467.15399	1399.47424	1130.44641	388.50159	1400.49658	1070.55969	417.16129	1196.08545	1158.11133	492.3559	1227.05078	1255.41992	455.78876	1347.86121	1390.03992	357.6424	1476.75818	1195.43652	51.45695	1478.50256	1093.97656	396.04584	1434.08984	1638.33777	286.28122	1426.27527	1354.56628	211.94063	1397.22449	953.98291	308.74283	1408.6604	633.35229	353.51382	1384.74048	1405.15112	51.84192	1329.13708	609.33679	36.97509	1307.9115	1575.45605	284.16391	1319.65381	1434.2439	198.48041	1096.50366	379.33411	66.48153	932.12903	341.66095	96.50753	926.14301	196.4384	101.79945	1305.06299	1581.85596	154.93947	1408.78906	256.39349	283.04886	1227.31885	1277.95032	243.95728	909.46027	376.49689	142.95695	1360.30591	85.24744	213.72845	1454.24133	1174.65186	203.87616	1316.48743	75.81528	175.12779	1512.10901	31.86493	184.96078	1256.98499	1120.37378	175.3756	1348.37512	1245.47424	-63.75049	1431.75952	1650.64307	154.07265	1263.13257	976.38641	100.81144	1250.95728	988.2793	268.24075	1412.58655	930.84448	94.04524	1423.23975	1124.72888	-40.40561	1496.22095	1127.52161	50.15977	1557.03455	1173.79565	98.27169	1317.75073	1153.45227	-108.25085	NaN	NaN	NaN	1328.48047	1677.70605	215.22591	NaN	NaN	NaN	NaN	NaN	NaN	NaN	NaN	NaN	NaN	NaN	NaN	NaN	NaN	NaN
84	0.83	1386.75134	440.55505	57.9626	1488.71265	507.18417	307.79672	1333.5022	1090.58289	466.93094	1448.78052	1118.1825	386.02078	1451.66125	1058.23096	415.15872	1247.63647	1140.34155	494.65881	1274.8999	1238.4801	460.2883	1390.24939	1380.21667	360.46933	1510.04541	1182.42883	45.38632	1528.58789	1081.91309	390.77469	1473.35376	1631.68896	286.26761	1465.14148	1346.66797	211.21448	1435.08655	944.32416	309.17474	1442.33618	621.96881	350.27673	1420.15234	1397.12927	50.57341	1380.62329	601.88092	34.17564	1347.3822	1567.62781	286.04764	1357.67712	1426.5874	200.20367	1159.89575	372.6553	62.27248	995.55109	334.17987	91.01958	994.51172	189.46786	92.89445	1342.13721	1574.18958	157.01903	1427.97278	250.54752	280.444	1266.43689	1266.4552	247.16098	971.46259	367.77969	137.94144	1367.35571	82.71881	212.99133	1491.44116	1166.30115	200.8082	1316.3905	73.06716	173.55157	1512.60266	31.58976	183.35799	1295.10425	1110.92773	176.2478	1377.35461	1237.80151	-64.90518	1468.46863	1644.16589	153.70064	1299.79077	967.99023	99.56916	1288.02393	980.2301	268.13095	1450.97974	922.89307	93.43286	1451.13635	1114.52612	-45.40892	1527.32788	1113.63037	42.33877	1590.53235	1156.92639	90.05879	1344.15735	1147.677	-109.05486	NaN	NaN	NaN	1365.87891	1669.9917	216.89246	NaN	NaN	NaN	NaN	NaN	NaN	NaN	NaN	NaN	NaN	NaN	NaN	NaN	NaN	NaN
85	0.84	1448.96277	436.74826	56.6563	1515.86389	496.19116	303.80069	1386.21301	1075.65186	465.55582	1499.11414	1107.22107	382.76788	1502.06055	1044.81445	406.86002	1300.70459	1123.34753	496.37369	1323.0697	1222.20447	463.95541	1433.44153	1371.58472	363.23267	1541.82776	1169.79956	39.51859	1579.37036	1071.00305	384.21713	1512.35938	1625.88184	285.96445	1503.98853	1339.8656	210.19263	1471.9519	934.64685	309.14331	1474.03687	611.29675	346.89099	1455.37219	1390.14404	49.13647	1433.67371	597.01178	31.62109	1386.9281	1560.80566	287.70984	1395.73572	1421.40637	202.40732	1224.73364	366.72562	57.97059	1061.11865	325.78638	85.20736	1065.55151	181.52553	83.86138	1379.4967	1567.474	158.75618	1445.17407	245.34201	275.48767	1304.21643	1256.34753	250.75787	1035.15039	357.69412	132.67081	1368.57996	81.3353	209.76668	1529.75085	1159.01892	198.9384	1316.57349	73.2951	171.52463	1512.50049	31.28572	182.02412	1333.46582	1101.92676	177.83046	1404.99817	1231.25403	-66.13985	1505.32581	1638.65979	153.30939	1335.63953	960.50476	99.00549	1324.46558	973.07117	268.97583	1488.74097	915.80682	92.65778	1477.65869	1105.81458	-50.5782	1556.64075	1100.68176	34.43414	1623.4541	1140.77795	80.97411	1369.4375	1143.11133	-109.77389	NaN	NaN	NaN	1403.48438	1663.3053	218.48862	NaN	NaN	NaN	NaN	NaN	NaN	NaN	NaN	NaN	NaN	NaN	NaN	NaN	NaN	NaN
